<mxfile host="app.diagrams.net" modified="2022-11-21T05:56:54.624Z" agent="5.0 (Windows NT 10.0; Win64; x64) AppleWebKit/537.36 (KHTML, like Gecko) Chrome/107.0.0.0 Safari/537.36" etag="pqqXxgqZNX_UnmSxTrde" version="20.5.3" type="github">
  <diagram id="eCHaqAdTofoHEWZYrXQT" name="第 1 页">
    <mxGraphModel dx="1422" dy="754" grid="1" gridSize="10" guides="1" tooltips="1" connect="1" arrows="1" fold="1" page="1" pageScale="1" pageWidth="827" pageHeight="1169" math="0" shadow="0">
      <root>
        <mxCell id="0" />
        <mxCell id="1" parent="0" />
        <mxCell id="GeqgyGRexY3p-APIAECZ-1" value="&lt;font color=&quot;#1ba1e2&quot; style=&quot;font-size: 16px;&quot;&gt;&quot;.&quot;根DNS服务器&lt;/font&gt;" style="aspect=fixed;html=1;points=[];align=center;image;fontSize=12;image=img/lib/azure2/ai_machine_learning/Cognitive_Services.svg;" vertex="1" parent="1">
          <mxGeometry x="370" y="60" width="68" height="48" as="geometry" />
        </mxCell>
        <mxCell id="GeqgyGRexY3p-APIAECZ-2" value="&lt;font style=&quot;font-size: 18px;&quot;&gt;根域名服务器&lt;/font&gt;" style="text;html=1;resizable=0;autosize=1;align=center;verticalAlign=middle;points=[];fillColor=none;strokeColor=none;rounded=0;fontColor=#1BA1E2;" vertex="1" parent="1">
          <mxGeometry x="80" y="80" width="130" height="40" as="geometry" />
        </mxCell>
      </root>
    </mxGraphModel>
  </diagram>
</mxfile>
